<mxfile host="app.diagrams.net" agent="Mozilla/5.0 (Windows NT 10.0; Win64; x64) AppleWebKit/537.36 (KHTML, like Gecko) Chrome/131.0.0.0 Safari/537.36" version="26.0.7">
  <diagram name="Page-1" id="lND7TX-oExwVLK9uiAMS">
    <mxGraphModel dx="2202" dy="1457" grid="1" gridSize="10" guides="1" tooltips="1" connect="1" arrows="1" fold="1" page="1" pageScale="1" pageWidth="850" pageHeight="1100" math="0" shadow="0">
      <root>
        <mxCell id="0" />
        <mxCell id="1" parent="0" />
        <mxCell id="jyfHK3mwszHoiOZQ5tla-5" value="" style="rounded=0;whiteSpace=wrap;html=1;fillColor=#FFFFFF;gradientColor=#E6E6E6;strokeColor=#666666;gradientDirection=north;" vertex="1" parent="1">
          <mxGeometry x="120" y="160" width="560" height="720" as="geometry" />
        </mxCell>
        <mxCell id="jyfHK3mwszHoiOZQ5tla-1" value="Input block" style="rounded=0;whiteSpace=wrap;html=1;fillColor=#f5f5f5;gradientColor=#E6E6E6;strokeColor=#666666;gradientDirection=south;" vertex="1" parent="1">
          <mxGeometry x="160" y="400" width="200" height="440" as="geometry" />
        </mxCell>
        <mxCell id="jyfHK3mwszHoiOZQ5tla-2" value="Virtual Channel Allocator" style="rounded=0;whiteSpace=wrap;html=1;fillColor=#f5f5f5;gradientColor=#E6E6E6;strokeColor=#666666;" vertex="1" parent="1">
          <mxGeometry x="160" y="200" width="200" height="120" as="geometry" />
        </mxCell>
        <mxCell id="jyfHK3mwszHoiOZQ5tla-3" value="Switch allocator" style="rounded=0;whiteSpace=wrap;html=1;fillColor=#f5f5f5;gradientColor=#E6E6E6;strokeColor=#666666;" vertex="1" parent="1">
          <mxGeometry x="440" y="400" width="200" height="200" as="geometry" />
        </mxCell>
        <mxCell id="jyfHK3mwszHoiOZQ5tla-4" value="Crossbar" style="rounded=0;whiteSpace=wrap;html=1;fillColor=#f5f5f5;gradientColor=#E6E6E6;strokeColor=#666666;" vertex="1" parent="1">
          <mxGeometry x="440" y="640" width="200" height="200" as="geometry" />
        </mxCell>
        <mxCell id="jyfHK3mwszHoiOZQ5tla-7" value="" style="rounded=0;whiteSpace=wrap;html=1;fillColor=#f5f5f5;gradientColor=#E6E6E6;strokeColor=#666666;gradientDirection=north;" vertex="1" parent="1">
          <mxGeometry x="-40" y="360" width="40" height="480" as="geometry" />
        </mxCell>
        <mxCell id="jyfHK3mwszHoiOZQ5tla-8" value="" style="rounded=0;whiteSpace=wrap;html=1;fillColor=#f5f5f5;gradientColor=#E6E6E6;strokeColor=#666666;gradientDirection=north;" vertex="1" parent="1">
          <mxGeometry x="800" y="320" width="40" height="480" as="geometry" />
        </mxCell>
        <mxCell id="jyfHK3mwszHoiOZQ5tla-9" value="" style="rounded=0;whiteSpace=wrap;html=1;fillColor=#f5f5f5;gradientColor=#E6E6E6;strokeColor=#666666;gradientDirection=north;" vertex="1" parent="1">
          <mxGeometry x="-40" y="180" width="40" height="120" as="geometry" />
        </mxCell>
        <mxCell id="jyfHK3mwszHoiOZQ5tla-10" value="rst" style="endArrow=classic;html=1;rounded=0;entryX=0.005;entryY=0.326;entryDx=0;entryDy=0;entryPerimeter=0;exitX=1;exitY=0.5;exitDx=0;exitDy=0;" edge="1" parent="1" source="jyfHK3mwszHoiOZQ5tla-9" target="jyfHK3mwszHoiOZQ5tla-2">
          <mxGeometry width="50" height="50" relative="1" as="geometry">
            <mxPoint x="240" y="300" as="sourcePoint" />
            <mxPoint x="290" y="250" as="targetPoint" />
            <Array as="points">
              <mxPoint x="80" y="240" />
            </Array>
            <mxPoint as="offset" />
          </mxGeometry>
        </mxCell>
        <mxCell id="jyfHK3mwszHoiOZQ5tla-12" value="" style="endArrow=classic;html=1;rounded=0;entryX=0.008;entryY=0.723;entryDx=0;entryDy=0;entryPerimeter=0;" edge="1" parent="1" target="jyfHK3mwszHoiOZQ5tla-2">
          <mxGeometry width="50" height="50" relative="1" as="geometry">
            <mxPoint x="-40" y="320" as="sourcePoint" />
            <mxPoint x="119" y="320" as="targetPoint" />
            <Array as="points">
              <mxPoint x="100" y="320" />
              <mxPoint x="100" y="287" />
            </Array>
          </mxGeometry>
        </mxCell>
        <mxCell id="jyfHK3mwszHoiOZQ5tla-13" value="clk" style="edgeLabel;html=1;align=center;verticalAlign=middle;resizable=0;points=[];" vertex="1" connectable="0" parent="jyfHK3mwszHoiOZQ5tla-12">
          <mxGeometry x="-0.7904" relative="1" as="geometry">
            <mxPoint x="83" as="offset" />
          </mxGeometry>
        </mxCell>
        <mxCell id="jyfHK3mwszHoiOZQ5tla-14" value="" style="endArrow=classic;html=1;rounded=0;exitX=0.003;exitY=0.729;exitDx=0;exitDy=0;exitPerimeter=0;entryX=1.022;entryY=0.752;entryDx=0;entryDy=0;entryPerimeter=0;" edge="1" parent="1" source="jyfHK3mwszHoiOZQ5tla-1">
          <mxGeometry width="50" height="50" relative="1" as="geometry">
            <mxPoint x="159.5200000000001" y="720.32" as="sourcePoint" />
            <mxPoint x="-1.1823875212257917e-13" y="720.96" as="targetPoint" />
          </mxGeometry>
        </mxCell>
        <mxCell id="jyfHK3mwszHoiOZQ5tla-21" value="vc_allocatable_o" style="edgeLabel;html=1;align=center;verticalAlign=middle;resizable=0;points=[];" vertex="1" connectable="0" parent="jyfHK3mwszHoiOZQ5tla-14">
          <mxGeometry x="-0.5279" y="-1" relative="1" as="geometry">
            <mxPoint x="-53" as="offset" />
          </mxGeometry>
        </mxCell>
        <mxCell id="jyfHK3mwszHoiOZQ5tla-15" value="" style="endArrow=classic;html=1;rounded=0;exitX=0.003;exitY=0.545;exitDx=0;exitDy=0;exitPerimeter=0;entryX=0.973;entryY=0.585;entryDx=0;entryDy=0;entryPerimeter=0;" edge="1" parent="1" source="jyfHK3mwszHoiOZQ5tla-1" target="jyfHK3mwszHoiOZQ5tla-7">
          <mxGeometry width="50" height="50" relative="1" as="geometry">
            <mxPoint x="119.32" y="679.8399999999999" as="sourcePoint" />
            <mxPoint x="10.000000000000064" y="680.6400000000001" as="targetPoint" />
          </mxGeometry>
        </mxCell>
        <mxCell id="jyfHK3mwszHoiOZQ5tla-20" value="on_off_o" style="edgeLabel;html=1;align=center;verticalAlign=middle;resizable=0;points=[];" vertex="1" connectable="0" parent="jyfHK3mwszHoiOZQ5tla-15">
          <mxGeometry x="-0.2125" relative="1" as="geometry">
            <mxPoint x="-16" as="offset" />
          </mxGeometry>
        </mxCell>
        <mxCell id="jyfHK3mwszHoiOZQ5tla-16" value="" style="endArrow=classic;html=1;rounded=0;entryX=0.001;entryY=0.344;entryDx=0;entryDy=0;entryPerimeter=0;exitX=1.004;exitY=0.399;exitDx=0;exitDy=0;exitPerimeter=0;" edge="1" parent="1" source="jyfHK3mwszHoiOZQ5tla-7" target="jyfHK3mwszHoiOZQ5tla-1">
          <mxGeometry width="50" height="50" relative="1" as="geometry">
            <mxPoint x="270" y="460" as="sourcePoint" />
            <mxPoint x="320" y="410" as="targetPoint" />
          </mxGeometry>
        </mxCell>
        <mxCell id="jyfHK3mwszHoiOZQ5tla-19" value="valid_flit_i" style="edgeLabel;html=1;align=center;verticalAlign=middle;resizable=0;points=[];" vertex="1" connectable="0" parent="jyfHK3mwszHoiOZQ5tla-16">
          <mxGeometry x="-0.3575" y="1" relative="1" as="geometry">
            <mxPoint x="8" as="offset" />
          </mxGeometry>
        </mxCell>
        <mxCell id="jyfHK3mwszHoiOZQ5tla-17" value="" style="endArrow=classic;html=1;rounded=0;entryX=-0.001;entryY=0.182;entryDx=0;entryDy=0;entryPerimeter=0;exitX=0.973;exitY=0.21;exitDx=0;exitDy=0;exitPerimeter=0;" edge="1" parent="1" source="jyfHK3mwszHoiOZQ5tla-7" target="jyfHK3mwszHoiOZQ5tla-1">
          <mxGeometry width="50" height="50" relative="1" as="geometry">
            <mxPoint x="1" y="440" as="sourcePoint" />
            <mxPoint x="320" y="410" as="targetPoint" />
            <Array as="points">
              <mxPoint x="80" y="460" />
              <mxPoint x="80" y="480" />
            </Array>
          </mxGeometry>
        </mxCell>
        <mxCell id="jyfHK3mwszHoiOZQ5tla-18" value="data_i" style="edgeLabel;html=1;align=center;verticalAlign=middle;resizable=0;points=[];" vertex="1" connectable="0" parent="jyfHK3mwszHoiOZQ5tla-17">
          <mxGeometry x="-0.2586" relative="1" as="geometry">
            <mxPoint x="-35" as="offset" />
          </mxGeometry>
        </mxCell>
        <mxCell id="jyfHK3mwszHoiOZQ5tla-22" value="" style="endArrow=classic;html=1;rounded=0;entryX=-0.029;entryY=0.917;entryDx=0;entryDy=0;entryPerimeter=0;exitX=1.004;exitY=0.599;exitDx=0;exitDy=0;exitPerimeter=0;" edge="1" parent="1" source="jyfHK3mwszHoiOZQ5tla-4" target="jyfHK3mwszHoiOZQ5tla-8">
          <mxGeometry width="50" height="50" relative="1" as="geometry">
            <mxPoint x="770" y="740" as="sourcePoint" />
            <mxPoint x="820" y="690" as="targetPoint" />
          </mxGeometry>
        </mxCell>
        <mxCell id="jyfHK3mwszHoiOZQ5tla-23" value="data_o" style="edgeLabel;html=1;align=center;verticalAlign=middle;resizable=0;points=[];" vertex="1" connectable="0" parent="jyfHK3mwszHoiOZQ5tla-22">
          <mxGeometry x="-0.4364" relative="1" as="geometry">
            <mxPoint x="45" as="offset" />
          </mxGeometry>
        </mxCell>
        <mxCell id="jyfHK3mwszHoiOZQ5tla-24" value="" style="endArrow=classic;html=1;rounded=0;entryX=-0.018;entryY=0.667;entryDx=0;entryDy=0;entryPerimeter=0;exitX=1.001;exitY=0.801;exitDx=0;exitDy=0;exitPerimeter=0;" edge="1" parent="1" source="jyfHK3mwszHoiOZQ5tla-3">
          <mxGeometry width="50" height="50" relative="1" as="geometry">
            <mxPoint x="640" y="660.84" as="sourcePoint" />
            <mxPoint x="800.2800000000002" y="640" as="targetPoint" />
            <Array as="points">
              <mxPoint x="670" y="560" />
              <mxPoint x="670" y="640" />
            </Array>
          </mxGeometry>
        </mxCell>
        <mxCell id="jyfHK3mwszHoiOZQ5tla-25" value="valid_flit_o" style="edgeLabel;html=1;align=center;verticalAlign=middle;resizable=0;points=[];" vertex="1" connectable="0" parent="jyfHK3mwszHoiOZQ5tla-24">
          <mxGeometry x="-0.6289" relative="1" as="geometry">
            <mxPoint x="60" y="65" as="offset" />
          </mxGeometry>
        </mxCell>
        <mxCell id="jyfHK3mwszHoiOZQ5tla-26" value="" style="endArrow=classic;html=1;rounded=0;entryX=0.999;entryY=0.601;entryDx=0;entryDy=0;entryPerimeter=0;exitX=0;exitY=0.417;exitDx=0;exitDy=0;exitPerimeter=0;" edge="1" parent="1" source="jyfHK3mwszHoiOZQ5tla-8" target="jyfHK3mwszHoiOZQ5tla-3">
          <mxGeometry width="50" height="50" relative="1" as="geometry">
            <mxPoint x="770" y="610" as="sourcePoint" />
            <mxPoint x="820" y="560" as="targetPoint" />
          </mxGeometry>
        </mxCell>
        <mxCell id="jyfHK3mwszHoiOZQ5tla-27" value="on_off_i" style="edgeLabel;html=1;align=center;verticalAlign=middle;resizable=0;points=[];" vertex="1" connectable="0" parent="jyfHK3mwszHoiOZQ5tla-26">
          <mxGeometry x="0.2025" relative="1" as="geometry">
            <mxPoint x="36" as="offset" />
          </mxGeometry>
        </mxCell>
        <mxCell id="jyfHK3mwszHoiOZQ5tla-28" value="" style="endArrow=classic;html=1;rounded=0;entryX=0.99;entryY=0.497;entryDx=0;entryDy=0;entryPerimeter=0;exitX=-0.004;exitY=0.147;exitDx=0;exitDy=0;exitPerimeter=0;" edge="1" parent="1" source="jyfHK3mwszHoiOZQ5tla-8" target="jyfHK3mwszHoiOZQ5tla-2">
          <mxGeometry width="50" height="50" relative="1" as="geometry">
            <mxPoint x="510" y="440" as="sourcePoint" />
            <mxPoint x="560" y="390" as="targetPoint" />
            <Array as="points">
              <mxPoint x="660" y="391" />
              <mxPoint x="660" y="260" />
            </Array>
          </mxGeometry>
        </mxCell>
        <mxCell id="jyfHK3mwszHoiOZQ5tla-29" value="valid_allocatable_i" style="edgeLabel;html=1;align=center;verticalAlign=middle;resizable=0;points=[];" vertex="1" connectable="0" parent="jyfHK3mwszHoiOZQ5tla-28">
          <mxGeometry x="0.1245" y="-1" relative="1" as="geometry">
            <mxPoint x="131" y="131" as="offset" />
          </mxGeometry>
        </mxCell>
        <mxCell id="jyfHK3mwszHoiOZQ5tla-30" value="" style="endArrow=classic;html=1;rounded=0;entryX=1.039;entryY=0.915;entryDx=0;entryDy=0;entryPerimeter=0;exitX=0.004;exitY=0.909;exitDx=0;exitDy=0;exitPerimeter=0;" edge="1" parent="1" source="jyfHK3mwszHoiOZQ5tla-1" target="jyfHK3mwszHoiOZQ5tla-7">
          <mxGeometry width="50" height="50" relative="1" as="geometry">
            <mxPoint x="70" y="810" as="sourcePoint" />
            <mxPoint x="120" y="760" as="targetPoint" />
          </mxGeometry>
        </mxCell>
        <mxCell id="jyfHK3mwszHoiOZQ5tla-31" value="error_o" style="edgeLabel;html=1;align=center;verticalAlign=middle;resizable=0;points=[];" vertex="1" connectable="0" parent="jyfHK3mwszHoiOZQ5tla-30">
          <mxGeometry x="0.1312" y="-1" relative="1" as="geometry">
            <mxPoint as="offset" />
          </mxGeometry>
        </mxCell>
        <mxCell id="jyfHK3mwszHoiOZQ5tla-33" value="" style="endArrow=classic;html=1;rounded=0;entryX=0.155;entryY=0.001;entryDx=0;entryDy=0;entryPerimeter=0;" edge="1" parent="1">
          <mxGeometry width="50" height="50" relative="1" as="geometry">
            <mxPoint x="590" y="350" as="sourcePoint" />
            <mxPoint x="590.5000000000002" y="400" as="targetPoint" />
            <Array as="points">
              <mxPoint x="590" y="380" />
            </Array>
          </mxGeometry>
        </mxCell>
        <mxCell id="jyfHK3mwszHoiOZQ5tla-36" value="rst" style="edgeLabel;html=1;align=center;verticalAlign=middle;resizable=0;points=[];" vertex="1" connectable="0" parent="jyfHK3mwszHoiOZQ5tla-33">
          <mxGeometry x="-0.1302" y="1" relative="1" as="geometry">
            <mxPoint x="-1" y="-32" as="offset" />
          </mxGeometry>
        </mxCell>
        <mxCell id="jyfHK3mwszHoiOZQ5tla-39" value="" style="endArrow=classic;html=1;rounded=0;entryX=0.349;entryY=0.002;entryDx=0;entryDy=0;entryPerimeter=0;" edge="1" parent="1">
          <mxGeometry width="50" height="50" relative="1" as="geometry">
            <mxPoint x="620" y="349" as="sourcePoint" />
            <mxPoint x="620" y="400" as="targetPoint" />
          </mxGeometry>
        </mxCell>
        <mxCell id="jyfHK3mwszHoiOZQ5tla-40" value="clk" style="edgeLabel;html=1;align=center;verticalAlign=middle;resizable=0;points=[];" vertex="1" connectable="0" parent="jyfHK3mwszHoiOZQ5tla-39">
          <mxGeometry x="-0.1675" y="1" relative="1" as="geometry">
            <mxPoint y="-31" as="offset" />
          </mxGeometry>
        </mxCell>
        <mxCell id="jyfHK3mwszHoiOZQ5tla-45" value="" style="endArrow=classic;html=1;rounded=0;entryX=0.329;entryY=1.006;entryDx=0;entryDy=0;entryPerimeter=0;exitX=0.328;exitY=0;exitDx=0;exitDy=0;exitPerimeter=0;" edge="1" parent="1" source="jyfHK3mwszHoiOZQ5tla-1" target="jyfHK3mwszHoiOZQ5tla-2">
          <mxGeometry width="50" height="50" relative="1" as="geometry">
            <mxPoint x="280" y="400" as="sourcePoint" />
            <mxPoint x="357" y="321" as="targetPoint" />
          </mxGeometry>
        </mxCell>
        <mxCell id="jyfHK3mwszHoiOZQ5tla-55" value="out_port" style="edgeLabel;html=1;align=center;verticalAlign=middle;resizable=0;points=[];rotation=270;" vertex="1" connectable="0" parent="jyfHK3mwszHoiOZQ5tla-45">
          <mxGeometry x="0.0198" relative="1" as="geometry">
            <mxPoint y="10" as="offset" />
          </mxGeometry>
        </mxCell>
        <mxCell id="jyfHK3mwszHoiOZQ5tla-46" value="" style="endArrow=classic;html=1;rounded=0;entryX=0.801;entryY=0;entryDx=0;entryDy=0;entryPerimeter=0;exitX=0.357;exitY=0.222;exitDx=0;exitDy=0;exitPerimeter=0;" edge="1" parent="1" source="jyfHK3mwszHoiOZQ5tla-5" target="jyfHK3mwszHoiOZQ5tla-1">
          <mxGeometry width="50" height="50" relative="1" as="geometry">
            <mxPoint x="263" y="420" as="sourcePoint" />
            <mxPoint x="340" y="341" as="targetPoint" />
          </mxGeometry>
        </mxCell>
        <mxCell id="jyfHK3mwszHoiOZQ5tla-57" value="vc_valid" style="edgeLabel;html=1;align=center;verticalAlign=middle;resizable=0;points=[];rotation=270;" vertex="1" connectable="0" parent="jyfHK3mwszHoiOZQ5tla-46">
          <mxGeometry x="-0.151" y="1" relative="1" as="geometry">
            <mxPoint as="offset" />
          </mxGeometry>
        </mxCell>
        <mxCell id="jyfHK3mwszHoiOZQ5tla-47" value="" style="endArrow=classic;html=1;rounded=0;entryX=0.585;entryY=0;entryDx=0;entryDy=0;entryPerimeter=0;exitX=0.584;exitY=1.004;exitDx=0;exitDy=0;exitPerimeter=0;" edge="1" parent="1" source="jyfHK3mwszHoiOZQ5tla-2" target="jyfHK3mwszHoiOZQ5tla-1">
          <mxGeometry width="50" height="50" relative="1" as="geometry">
            <mxPoint x="289.9999999999999" y="319.9999999999999" as="sourcePoint" />
            <mxPoint x="290.9999999999999" y="399.52" as="targetPoint" />
          </mxGeometry>
        </mxCell>
        <mxCell id="jyfHK3mwszHoiOZQ5tla-56" value="vc_new" style="edgeLabel;html=1;align=center;verticalAlign=middle;resizable=0;points=[];rotation=270;" vertex="1" connectable="0" parent="jyfHK3mwszHoiOZQ5tla-47">
          <mxGeometry x="-0.1604" relative="1" as="geometry">
            <mxPoint as="offset" />
          </mxGeometry>
        </mxCell>
        <mxCell id="jyfHK3mwszHoiOZQ5tla-50" value="" style="endArrow=classic;html=1;rounded=0;entryX=0.138;entryY=1;entryDx=0;entryDy=0;entryPerimeter=0;exitX=0.136;exitY=0;exitDx=0;exitDy=0;exitPerimeter=0;" edge="1" parent="1" source="jyfHK3mwszHoiOZQ5tla-1" target="jyfHK3mwszHoiOZQ5tla-2">
          <mxGeometry width="50" height="50" relative="1" as="geometry">
            <mxPoint x="231" y="410" as="sourcePoint" />
            <mxPoint x="231" y="330" as="targetPoint" />
          </mxGeometry>
        </mxCell>
        <mxCell id="jyfHK3mwszHoiOZQ5tla-54" value="vc_request" style="edgeLabel;html=1;align=center;verticalAlign=middle;resizable=0;points=[];rotation=270;" vertex="1" connectable="0" parent="jyfHK3mwszHoiOZQ5tla-50">
          <mxGeometry x="0.0224" y="1" relative="1" as="geometry">
            <mxPoint y="11" as="offset" />
          </mxGeometry>
        </mxCell>
        <mxCell id="jyfHK3mwszHoiOZQ5tla-52" value="" style="endArrow=classic;html=1;rounded=0;entryX=0.007;entryY=0.045;entryDx=0;entryDy=0;entryPerimeter=0;" edge="1" parent="1" target="jyfHK3mwszHoiOZQ5tla-1">
          <mxGeometry width="50" height="50" relative="1" as="geometry">
            <mxPoint x="100" y="320" as="sourcePoint" />
            <mxPoint x="260" y="420" as="targetPoint" />
            <Array as="points">
              <mxPoint x="100" y="420" />
            </Array>
          </mxGeometry>
        </mxCell>
        <mxCell id="jyfHK3mwszHoiOZQ5tla-53" value="" style="endArrow=classic;html=1;rounded=0;entryX=-0.01;entryY=0.092;entryDx=0;entryDy=0;entryPerimeter=0;" edge="1" parent="1">
          <mxGeometry width="50" height="50" relative="1" as="geometry">
            <mxPoint x="40" y="240" as="sourcePoint" />
            <mxPoint x="160" y="440.48" as="targetPoint" />
            <Array as="points">
              <mxPoint x="40" y="440" />
            </Array>
          </mxGeometry>
        </mxCell>
        <mxCell id="jyfHK3mwszHoiOZQ5tla-58" value="" style="endArrow=classic;html=1;rounded=0;entryX=0;entryY=0.75;entryDx=0;entryDy=0;" edge="1" parent="1" target="jyfHK3mwszHoiOZQ5tla-3">
          <mxGeometry width="50" height="50" relative="1" as="geometry">
            <mxPoint x="360" y="550" as="sourcePoint" />
            <mxPoint x="410" y="500" as="targetPoint" />
          </mxGeometry>
        </mxCell>
        <mxCell id="jyfHK3mwszHoiOZQ5tla-65" value="&lt;font style=&quot;font-size: 8px;&quot;&gt;downstream_vc&lt;/font&gt;" style="edgeLabel;html=1;align=center;verticalAlign=middle;resizable=0;points=[];" vertex="1" connectable="0" parent="jyfHK3mwszHoiOZQ5tla-58">
          <mxGeometry x="-0.355" relative="1" as="geometry">
            <mxPoint x="14" as="offset" />
          </mxGeometry>
        </mxCell>
        <mxCell id="jyfHK3mwszHoiOZQ5tla-59" value="" style="endArrow=classic;html=1;rounded=0;entryX=0.003;entryY=0.538;entryDx=0;entryDy=0;exitX=1.001;exitY=0.244;exitDx=0;exitDy=0;exitPerimeter=0;entryPerimeter=0;" edge="1" parent="1" source="jyfHK3mwszHoiOZQ5tla-1" target="jyfHK3mwszHoiOZQ5tla-3">
          <mxGeometry width="50" height="50" relative="1" as="geometry">
            <mxPoint x="360" y="550" as="sourcePoint" />
            <mxPoint x="410" y="500" as="targetPoint" />
          </mxGeometry>
        </mxCell>
        <mxCell id="jyfHK3mwszHoiOZQ5tla-64" value="&lt;font style=&quot;font-size: 8px;&quot;&gt;out_port&lt;/font&gt;" style="edgeLabel;html=1;align=center;verticalAlign=middle;resizable=0;points=[];" vertex="1" connectable="0" parent="jyfHK3mwszHoiOZQ5tla-59">
          <mxGeometry x="-0.2524" relative="1" as="geometry">
            <mxPoint as="offset" />
          </mxGeometry>
        </mxCell>
        <mxCell id="jyfHK3mwszHoiOZQ5tla-60" value="" style="endArrow=classic;html=1;rounded=0;entryX=0.999;entryY=0.142;entryDx=0;entryDy=0;entryPerimeter=0;exitX=0.005;exitY=0.311;exitDx=0;exitDy=0;exitPerimeter=0;" edge="1" parent="1" source="jyfHK3mwszHoiOZQ5tla-3" target="jyfHK3mwszHoiOZQ5tla-1">
          <mxGeometry width="50" height="50" relative="1" as="geometry">
            <mxPoint x="360" y="550" as="sourcePoint" />
            <mxPoint x="410" y="500" as="targetPoint" />
          </mxGeometry>
        </mxCell>
        <mxCell id="jyfHK3mwszHoiOZQ5tla-63" value="&lt;font style=&quot;font-size: 8px;&quot;&gt;valid_sel&lt;/font&gt;" style="edgeLabel;html=1;align=center;verticalAlign=middle;resizable=0;points=[];" vertex="1" connectable="0" parent="jyfHK3mwszHoiOZQ5tla-60">
          <mxGeometry x="0.1749" relative="1" as="geometry">
            <mxPoint x="7" as="offset" />
          </mxGeometry>
        </mxCell>
        <mxCell id="jyfHK3mwszHoiOZQ5tla-61" value="" style="endArrow=classic;html=1;rounded=0;entryX=1;entryY=0.065;entryDx=0;entryDy=0;entryPerimeter=0;exitX=-0.002;exitY=0.143;exitDx=0;exitDy=0;exitPerimeter=0;" edge="1" parent="1" source="jyfHK3mwszHoiOZQ5tla-3" target="jyfHK3mwszHoiOZQ5tla-1">
          <mxGeometry width="50" height="50" relative="1" as="geometry">
            <mxPoint x="360" y="550" as="sourcePoint" />
            <mxPoint x="410" y="500" as="targetPoint" />
          </mxGeometry>
        </mxCell>
        <mxCell id="jyfHK3mwszHoiOZQ5tla-62" value="&lt;font style=&quot;font-size: 8px;&quot;&gt;vc_sel&lt;/font&gt;" style="edgeLabel;html=1;align=center;verticalAlign=middle;resizable=0;points=[];" vertex="1" connectable="0" parent="jyfHK3mwszHoiOZQ5tla-61">
          <mxGeometry x="0.0764" relative="1" as="geometry">
            <mxPoint as="offset" />
          </mxGeometry>
        </mxCell>
        <mxCell id="jyfHK3mwszHoiOZQ5tla-66" value="" style="endArrow=classic;html=1;rounded=0;entryX=-0.001;entryY=0.382;entryDx=0;entryDy=0;entryPerimeter=0;exitX=1.002;exitY=0.719;exitDx=0;exitDy=0;exitPerimeter=0;" edge="1" parent="1" source="jyfHK3mwszHoiOZQ5tla-1" target="jyfHK3mwszHoiOZQ5tla-4">
          <mxGeometry width="50" height="50" relative="1" as="geometry">
            <mxPoint x="380" y="770" as="sourcePoint" />
            <mxPoint x="430" y="720" as="targetPoint" />
          </mxGeometry>
        </mxCell>
        <mxCell id="jyfHK3mwszHoiOZQ5tla-67" value="flit" style="edgeLabel;html=1;align=center;verticalAlign=middle;resizable=0;points=[];" vertex="1" connectable="0" parent="jyfHK3mwszHoiOZQ5tla-66">
          <mxGeometry x="-0.2684" y="-1" relative="1" as="geometry">
            <mxPoint as="offset" />
          </mxGeometry>
        </mxCell>
        <mxCell id="jyfHK3mwszHoiOZQ5tla-68" value="" style="endArrow=classic;html=1;rounded=0;entryX=0.545;entryY=0;entryDx=0;entryDy=0;entryPerimeter=0;exitX=0.54;exitY=0.997;exitDx=0;exitDy=0;exitPerimeter=0;" edge="1" parent="1" source="jyfHK3mwszHoiOZQ5tla-3" target="jyfHK3mwszHoiOZQ5tla-4">
          <mxGeometry width="50" height="50" relative="1" as="geometry">
            <mxPoint x="380" y="660" as="sourcePoint" />
            <mxPoint x="430" y="610" as="targetPoint" />
          </mxGeometry>
        </mxCell>
        <mxCell id="jyfHK3mwszHoiOZQ5tla-69" value="input_vc_sel" style="edgeLabel;html=1;align=center;verticalAlign=middle;resizable=0;points=[];" vertex="1" connectable="0" parent="jyfHK3mwszHoiOZQ5tla-68">
          <mxGeometry x="-0.1494" y="1" relative="1" as="geometry">
            <mxPoint as="offset" />
          </mxGeometry>
        </mxCell>
        <mxCell id="jyfHK3mwszHoiOZQ5tla-70" value="Reset Interafce" style="text;html=1;align=center;verticalAlign=middle;resizable=0;points=[];autosize=1;strokeColor=none;fillColor=none;rotation=270;" vertex="1" parent="1">
          <mxGeometry x="-70" y="225" width="100" height="30" as="geometry" />
        </mxCell>
        <mxCell id="jyfHK3mwszHoiOZQ5tla-71" value="Upstream Router Interface" style="text;html=1;align=center;verticalAlign=middle;resizable=0;points=[];autosize=1;strokeColor=none;fillColor=none;rotation=270;" vertex="1" parent="1">
          <mxGeometry x="-100" y="580" width="160" height="30" as="geometry" />
        </mxCell>
        <mxCell id="jyfHK3mwszHoiOZQ5tla-72" value="Downstream Router Interface" style="text;html=1;align=center;verticalAlign=middle;resizable=0;points=[];autosize=1;strokeColor=none;fillColor=none;rotation=270;" vertex="1" parent="1">
          <mxGeometry x="730" y="550" width="180" height="30" as="geometry" />
        </mxCell>
        <mxCell id="jyfHK3mwszHoiOZQ5tla-73" value="&lt;font style=&quot;font-size: 18px;&quot;&gt;Router&lt;/font&gt;" style="text;html=1;align=center;verticalAlign=middle;resizable=0;points=[];autosize=1;strokeColor=none;fillColor=none;" vertex="1" parent="1">
          <mxGeometry x="590" y="170" width="80" height="40" as="geometry" />
        </mxCell>
      </root>
    </mxGraphModel>
  </diagram>
</mxfile>
